<mxfile host="Electron" agent="Mozilla/5.0 (Windows NT 10.0; Win64; x64) AppleWebKit/537.36 (KHTML, like Gecko) draw.io/24.7.8 Chrome/128.0.6613.36 Electron/32.0.1 Safari/537.36" version="24.7.8">
  <diagram id="C5RBs43oDa-KdzZeNtuy" name="Page-1">
    <mxGraphModel dx="2954" dy="1196" grid="1" gridSize="10" guides="1" tooltips="1" connect="1" arrows="1" fold="1" page="1" pageScale="1" pageWidth="827" pageHeight="1169" math="0" shadow="0">
      <root>
        <mxCell id="WIyWlLk6GJQsqaUBKTNV-0" />
        <mxCell id="WIyWlLk6GJQsqaUBKTNV-1" parent="WIyWlLk6GJQsqaUBKTNV-0" />
        <mxCell id="hq8gO_OMHPUNWcWOLLd4-3" value="&lt;font style=&quot;font-size: 24px;&quot;&gt;Utilisateur&lt;/font&gt;" style="swimlane;whiteSpace=wrap;html=1;fillColor=#fff2cc;strokeColor=#d6b656;" parent="WIyWlLk6GJQsqaUBKTNV-1" vertex="1">
          <mxGeometry x="84" y="10" width="330" height="380" as="geometry" />
        </mxCell>
        <mxCell id="hq8gO_OMHPUNWcWOLLd4-5" value="" style="endArrow=none;html=1;rounded=0;" parent="hq8gO_OMHPUNWcWOLLd4-3" edge="1">
          <mxGeometry width="50" height="50" relative="1" as="geometry">
            <mxPoint x="6" y="300" as="sourcePoint" />
            <mxPoint x="326" y="300" as="targetPoint" />
          </mxGeometry>
        </mxCell>
        <mxCell id="hq8gO_OMHPUNWcWOLLd4-7" value="&lt;font style=&quot;font-size: 14px;&quot;&gt;+ se_connecter () : void&lt;/font&gt;&lt;div style=&quot;font-size: 14px;&quot;&gt;&lt;font style=&quot;font-size: 14px;&quot;&gt;+ se_deconnecter () : void&lt;/font&gt;&lt;/div&gt;" style="text;html=1;align=left;verticalAlign=middle;resizable=0;points=[];autosize=1;" parent="hq8gO_OMHPUNWcWOLLd4-3" vertex="1">
          <mxGeometry x="35" y="315" width="190" height="50" as="geometry" />
        </mxCell>
        <mxCell id="hq8gO_OMHPUNWcWOLLd4-4" value="&lt;font style=&quot;font-size: 20px;&quot;&gt;- user_id : int&lt;/font&gt;&lt;div style=&quot;font-size: 20px;&quot;&gt;&lt;font style=&quot;font-size: 20px;&quot;&gt;- nom : String&lt;/font&gt;&lt;/div&gt;&lt;div style=&quot;font-size: 20px;&quot;&gt;&lt;font style=&quot;font-size: 20px;&quot;&gt;- prenom : String&lt;/font&gt;&lt;/div&gt;&lt;div style=&quot;font-size: 20px;&quot;&gt;&lt;font style=&quot;font-size: 20px;&quot;&gt;- mot_de_passe : String&lt;/font&gt;&lt;/div&gt;&lt;div style=&quot;font-size: 20px;&quot;&gt;&lt;font style=&quot;font-size: 20px;&quot;&gt;- role_id : int&lt;/font&gt;&lt;/div&gt;&lt;div style=&quot;font-size: 20px;&quot;&gt;&lt;font style=&quot;font-size: 20px;&quot;&gt;- cp : String&lt;/font&gt;&lt;/div&gt;&lt;div style=&quot;font-size: 20px;&quot;&gt;&lt;font style=&quot;font-size: 20px;&quot;&gt;- date_creation : Date&lt;/font&gt;&lt;/div&gt;&lt;div style=&quot;font-size: 20px;&quot;&gt;&lt;font style=&quot;font-size: 20px;&quot;&gt;- derniere_connexion : Date&lt;/font&gt;&lt;/div&gt;&lt;div style=&quot;font-size: 20px;&quot;&gt;&lt;font style=&quot;font-size: 20px;&quot;&gt;- statut_compte : String&lt;/font&gt;&lt;/div&gt;" style="text;html=1;align=left;verticalAlign=middle;resizable=0;points=[];autosize=1;" parent="hq8gO_OMHPUNWcWOLLd4-3" vertex="1">
          <mxGeometry x="35" y="38" width="270" height="230" as="geometry" />
        </mxCell>
        <mxCell id="hq8gO_OMHPUNWcWOLLd4-8" value="" style="endArrow=classic;html=1;rounded=0;" parent="WIyWlLk6GJQsqaUBKTNV-1" target="hq8gO_OMHPUNWcWOLLd4-4" edge="1">
          <mxGeometry width="50" height="50" relative="1" as="geometry">
            <mxPoint x="520" y="163" as="sourcePoint" />
            <mxPoint x="440" y="210" as="targetPoint" />
          </mxGeometry>
        </mxCell>
        <mxCell id="hq8gO_OMHPUNWcWOLLd4-9" value="Clé étrangère vers Role" style="text;html=1;align=center;verticalAlign=middle;resizable=0;points=[];autosize=1;strokeColor=#82b366;fillColor=#d5e8d4;strokeWidth=2;" parent="WIyWlLk6GJQsqaUBKTNV-1" vertex="1">
          <mxGeometry x="520" y="148" width="150" height="30" as="geometry" />
        </mxCell>
        <mxCell id="hq8gO_OMHPUNWcWOLLd4-12" value="" style="endArrow=none;dashed=1;html=1;rounded=0;" parent="WIyWlLk6GJQsqaUBKTNV-1" edge="1">
          <mxGeometry width="50" height="50" relative="1" as="geometry">
            <mxPoint x="253.5" y="520" as="sourcePoint" />
            <mxPoint x="253.5" y="410" as="targetPoint" />
          </mxGeometry>
        </mxCell>
        <mxCell id="hq8gO_OMHPUNWcWOLLd4-13" value="1" style="text;html=1;align=center;verticalAlign=middle;resizable=0;points=[];autosize=1;strokeColor=none;fillColor=none;" parent="WIyWlLk6GJQsqaUBKTNV-1" vertex="1">
          <mxGeometry x="260" y="408" width="30" height="30" as="geometry" />
        </mxCell>
        <mxCell id="hq8gO_OMHPUNWcWOLLd4-14" value="N" style="text;html=1;align=center;verticalAlign=middle;resizable=0;points=[];autosize=1;strokeColor=none;fillColor=none;" parent="WIyWlLk6GJQsqaUBKTNV-1" vertex="1">
          <mxGeometry x="260" y="498" width="30" height="30" as="geometry" />
        </mxCell>
        <mxCell id="hq8gO_OMHPUNWcWOLLd4-15" value="&lt;font style=&quot;font-size: 24px;&quot;&gt;Ticket&lt;/font&gt;" style="swimlane;whiteSpace=wrap;html=1;fillColor=#fff2cc;strokeColor=#d6b656;" parent="WIyWlLk6GJQsqaUBKTNV-1" vertex="1">
          <mxGeometry x="10" y="540" width="640" height="500" as="geometry" />
        </mxCell>
        <mxCell id="hq8gO_OMHPUNWcWOLLd4-16" value="" style="endArrow=none;html=1;rounded=0;" parent="hq8gO_OMHPUNWcWOLLd4-15" edge="1">
          <mxGeometry width="50" height="50" relative="1" as="geometry">
            <mxPoint x="10" y="320" as="sourcePoint" />
            <mxPoint x="630" y="320" as="targetPoint" />
            <Array as="points">
              <mxPoint x="310" y="320" />
            </Array>
          </mxGeometry>
        </mxCell>
        <mxCell id="hq8gO_OMHPUNWcWOLLd4-17" value="&lt;font style=&quot;font-size: 14px;&quot;&gt;+ ouvrir () : void&lt;/font&gt;&lt;div style=&quot;font-size: 14px;&quot;&gt;&lt;font style=&quot;font-size: 14px;&quot;&gt;+ fermer () : void&lt;/font&gt;&lt;/div&gt;&lt;div style=&quot;font-size: 14px;&quot;&gt;&lt;font style=&quot;font-size: 14px;&quot;&gt;+ ajouter_commentaire (contenu : String) : void&lt;/font&gt;&lt;/div&gt;&lt;div style=&quot;font-size: 14px;&quot;&gt;&lt;font style=&quot;font-size: 14px;&quot;&gt;+ enregistrer_historique (action : String, ancienne_valeur : String, nouvelle_valeur : String ) : void&lt;/font&gt;&lt;/div&gt;" style="text;html=1;align=left;verticalAlign=middle;resizable=0;points=[];autosize=1;" parent="hq8gO_OMHPUNWcWOLLd4-15" vertex="1">
          <mxGeometry x="10" y="340" width="620" height="80" as="geometry" />
        </mxCell>
        <mxCell id="hq8gO_OMHPUNWcWOLLd4-18" value="&lt;font style=&quot;font-size: 18px;&quot;&gt;- ticket_id : int&lt;/font&gt;&lt;div style=&quot;font-size: 18px;&quot;&gt;&lt;font style=&quot;font-size: 18px;&quot;&gt;- user_id : int&lt;/font&gt;&lt;/div&gt;&lt;div style=&quot;font-size: 18px;&quot;&gt;&lt;font style=&quot;font-size: 18px;&quot;&gt;- titre : String&lt;/font&gt;&lt;/div&gt;&lt;div style=&quot;font-size: 18px;&quot;&gt;&lt;font style=&quot;font-size: 18px;&quot;&gt;- description : String&lt;/font&gt;&lt;/div&gt;&lt;div style=&quot;font-size: 18px;&quot;&gt;&lt;font style=&quot;font-size: 18px;&quot;&gt;- date_creation : Date&lt;/font&gt;&lt;/div&gt;&lt;div style=&quot;font-size: 18px;&quot;&gt;&lt;font style=&quot;font-size: 18px;&quot;&gt;- statut_id : int&lt;/font&gt;&lt;/div&gt;&lt;div style=&quot;font-size: 18px;&quot;&gt;&lt;font style=&quot;font-size: 18px;&quot;&gt;- priorite_id : int&lt;/font&gt;&lt;/div&gt;&lt;div style=&quot;font-size: 18px;&quot;&gt;&lt;font style=&quot;font-size: 18px;&quot;&gt;- categorie_id : int&lt;/font&gt;&lt;/div&gt;&lt;div style=&quot;font-size: 18px;&quot;&gt;&lt;font style=&quot;font-size: 18px;&quot;&gt;- date_cloture : int&amp;nbsp;&lt;/font&gt;&lt;/div&gt;&lt;div style=&quot;font-size: 18px;&quot;&gt;&lt;font style=&quot;font-size: 18px;&quot;&gt;- cree_par : String&lt;/font&gt;&lt;/div&gt;&lt;div style=&quot;font-size: 18px;&quot;&gt;&lt;font style=&quot;font-size: 18px;&quot;&gt;- commentaire_resolution ; String&lt;/font&gt;&lt;/div&gt;&lt;div style=&quot;font-size: 18px;&quot;&gt;&lt;span style=&quot;&quot;&gt;&lt;br&gt;&lt;/span&gt;&lt;/div&gt;" style="text;html=1;align=left;verticalAlign=middle;resizable=0;points=[];autosize=1;" parent="hq8gO_OMHPUNWcWOLLd4-15" vertex="1">
          <mxGeometry x="20" y="55" width="290" height="270" as="geometry" />
        </mxCell>
      </root>
    </mxGraphModel>
  </diagram>
</mxfile>
